<svg width="685" height="685" viewBox="0 0 685 685" fill="none" xmlns="http://www.w3.org/2000/svg">
<mask id="mask0_389_282" style="mask-type:luminance" maskUnits="userSpaceOnUse" x="76" y="76" width="533" height="533">
<path d="M342.479 209.38L232.209 76.28L248.359 248.36L76.2793 232.22L209.379 342.48L76.2793 452.74L248.359 436.59L232.209 608.67L342.479 475.57L452.729 608.67L436.589 436.59L608.669 452.74L475.569 342.48L608.669 232.22L436.589 248.36L452.729 76.28L342.479 209.38Z" fill="white"/>
</mask>
<g mask="url(#mask0_389_282)">
<path d="M57.72 532.74L627.23 152.21M6.58 275.66L678.37 409.29M152.21 57.72L532.75 627.24M409.29 6.58L275.66 678.37M152.2 627.23L532.74 57.72M6.58 409.29L678.37 275.66M57.72 152.21L627.23 532.75M275.66 6.58L409.29 678.37M181.03 644.51L503.92 40.44M14.75 441.89L670.21 243.06M40.44 181.03L644.51 503.91M243.06 14.75L441.89 670.21M211.42 658.89L473.53 26.07M26.07 473.53L658.88 211.42M26.07 211.42L658.88 473.54M211.42 26.07L473.54 658.88M308.91 683.3L376.04 1.65M77.74 559.74L607.21 125.21M1.65 308.91L683.3 376.05M125.21 77.74L559.74 607.21M243.06 670.2L441.89 14.75M40.44 503.92L644.51 181.03M14.75 243.06L670.21 441.89M181.03 40.44L503.91 644.51M125.2 607.21L559.74 77.74M1.65 376.04L683.3 308.9M77.74 125.21L607.21 559.74M308.91 1.65L376.05 683.3M100.32 584.64L584.64 100.31M0 342.48H684.95M100.31 100.31L584.64 584.64M342.47 0V684.95" stroke="#707576" stroke-width="0.5" stroke-miterlimit="10"/>
</g>
<mask id="mask1_389_282" style="mask-type:luminance" maskUnits="userSpaceOnUse" x="186" y="186" width="313" height="313">
<path d="M342.481 264.39L277.791 186.31L287.261 287.26L186.311 277.79L264.391 342.48L186.311 407.16L287.261 397.69L277.791 498.64L342.481 420.56L407.161 498.64L397.691 397.69L498.641 407.16L420.561 342.48L498.641 277.79L397.691 287.26L407.161 186.31L342.481 264.39Z" fill="white"/>
</mask>
<g mask="url(#mask1_389_282)">
<path d="M175.421 454.1L509.541 230.85M145.421 303.28L539.541 381.67M230.851 175.42L454.101 509.53M381.671 145.42L303.281 539.54M230.851 509.54L454.101 175.43M145.421 381.68L539.541 303.29M175.421 230.86L509.541 454.11M303.281 145.43L381.671 539.55M247.761 519.69L437.181 165.3M150.201 400.82L534.731 284.17M165.271 247.78L519.661 437.21M284.141 150.23L400.791 534.76M265.581 528.12L419.361 156.87M156.851 419.36L528.101 265.58M156.851 265.58L528.101 419.36M265.591 156.85L419.371 528.1M322.791 542.43L362.181 142.53M187.171 469.94L497.791 215.02M142.531 322.79L542.431 362.18M215.011 187.16L469.931 497.78M284.141 534.74L400.791 150.21M165.271 437.19L519.661 247.76M150.201 284.15L534.731 400.8M247.761 165.28L437.181 519.67M215.011 497.79L469.931 187.17M142.521 362.18L542.421 322.79M187.161 215.02L497.781 469.94M322.781 142.53L362.171 542.43M200.411 484.55L484.551 200.4M141.561 342.47H543.401M200.401 200.4L484.541 484.54M342.471 141.55V543.39" stroke="#FFDC00" stroke-width="0.75" stroke-miterlimit="10"/>
</g>
<path d="M373.439 315.7L357.899 331.6L342.469 315.82L327.049 331.6L311.509 315.7H311.119L314.599 360.74H370.349L373.829 315.7H373.439Z" fill="white"/>
</svg>
